
<svg width="87px" height="53px" viewBox="0 0 87 53" version="1.1" xmlns="http://www.w3.org/2000/svg" xmlns:xlink="http://www.w3.org/1999/xlink">
    <!-- Generator: Sketch 49.3 (51167) - http://www.bohemiancoding.com/sketch -->
    <desc>Created with Sketch.</desc>
    <defs></defs>
    <g id="Page-1" stroke="none" stroke-width="1" fill="none" fill-rule="evenodd">
        <g id="China_contour" fill="#F1F1F1" fill-rule="nonzero">
            <path d="M0.0360554019,22.1040369 C0.240502564,22.1049673 0.410664019,22.0098805 0.421900042,21.8092863 C0.436676436,21.5338881 0.27767647,21.5854322 0.449254074,21.2947754 C0.588353423,21.0595704 0.78033475,21.142562 0.98882539,21.0724099 C1.23176944,20.9907208 1.39919176,20.7035995 1.66160786,20.6972728 C1.64345879,20.6109318 1.65816065,20.5216134 1.70589977,20.4293178 C1.84816683,20.457788 2.11455186,20.5932542 2.28540276,20.4786289 C2.41363876,20.39266 2.56950829,20.2495646 2.72349584,20.2305844 C2.88421009,20.21086 2.85376289,20.5806007 2.93504238,20.6652671 C3.07307961,20.8091068 3.47502363,20.613909 3.69715402,20.6321449 C4.10554524,20.6654532 4.29186197,20.1206112 4.41558865,19.8535865 C4.51747683,19.633454 4.65122835,19.5508345 4.90259476,19.5863758 C5.2214891,19.6314071 5.52743314,19.6371756 5.86632127,19.5720476 C6.0432467,19.537995 6.25857584,19.5949355 6.43033978,19.4754722 C6.62008508,19.3435415 6.67311613,19.0830297 6.87150739,18.9289555 C7.37077437,18.541351 8.09207857,18.5028325 8.62673063,18.1891018 C8.84192934,18.0629396 8.95324609,17.9948344 9.17058766,17.9899963 C9.44977394,17.9836696 9.40764351,17.8923043 9.38984848,17.7092017 C9.3670224,17.4760436 9.34745719,17.2717279 9.30230813,17.0476877 C9.24262491,16.7544257 9.61857514,16.6891117 9.86045708,16.6377536 C9.80068069,16.5633217 9.72318382,16.5052647 9.62800371,16.4635828 C9.76345089,16.3413283 9.98435146,16.1574814 10.1260595,16.2760143 C10.3349974,16.0309471 10.0151341,16.0067567 10.0756931,15.8029992 C10.1570098,15.5361606 9.93685458,15.3493364 9.85033907,15.150603 C9.73141984,14.8778099 9.5995503,14.6035281 9.59496645,14.2803073 C9.59191055,14.0672458 9.86630801,13.720579 9.67656271,13.6280972 C9.51620249,13.5501298 8.71022751,13.6312606 9.03761874,13.3417203 C9.22346964,13.1777839 9.70184842,13.13145 9.92861856,13.0741374 C10.3418359,12.9697465 10.7213637,12.942951 11.1439164,12.8221852 C11.5649412,12.7019776 11.5565002,12.8705659 11.821879,12.9807253 C12.0347672,13.0691132 12.3330156,12.8419096 12.5188851,12.9961699 C12.7324627,13.1738762 12.8537297,12.880056 12.862972,12.7068156 C12.8767794,12.4472342 12.4552329,12.5977728 12.3844628,12.4040636 C12.3237733,12.2384525 12.5832826,11.9217445 12.6722205,11.7410609 C12.806326,11.4686399 12.8475061,11.182449 12.9593074,10.907609 C13.064885,10.6476554 13.3053135,10.3620227 13.3481706,10.1091402 C13.3998973,9.80415519 13.6133445,9.71818628 13.8670028,9.84788397 C14.0811767,9.95729896 14.2627978,10.0613176 14.5218412,10.1201189 C14.8593691,10.1965977 15.2618721,10.0743432 15.6179963,10.1069072 C15.8908658,10.1318419 15.8532074,10.4612033 16.1944992,10.2667498 C16.4575489,10.1171416 16.7417103,10.097045 16.9943811,9.94706456 C17.4555052,9.67371318 16.901027,8.92083388 16.9314556,8.62589724 C16.9517662,8.46586852 17.1144369,8.02876682 17.3492381,7.91656064 C17.5747971,7.80863429 17.7804741,7.91916576 18.0103933,7.842873 C18.5930826,7.64990813 18.6496913,7.44950008 18.6806229,7.0492422 C18.7006354,6.78779993 19.0530701,6.76900586 19.2408961,6.7863113 C19.5414551,6.81385112 19.6815234,6.8186892 20.0213804,6.7362558 C20.1720698,6.69978414 20.4055853,6.92661554 20.2556785,7.0187251 C20.0154363,7.16628646 20.1962934,7.31998846 20.370163,7.35515756 C20.7121256,7.42382105 20.3173742,7.58384977 20.4904611,7.67279596 C20.7310946,7.79616694 21.1439578,7.78295527 21.2546038,8.02504522 C21.3780882,8.29672188 21.954498,8.62422252 22.3924979,8.51741265 C22.682678,8.44670229 23.0770195,8.98652009 23.2807027,8.70628375 C23.4011126,8.74554661 23.3591127,8.85570592 23.4411561,8.9206478 C23.5523611,9.00903576 23.7112492,9.01647896 23.8095598,9.12310274 C23.9947398,9.32332472 23.9594107,9.62961224 24.1319199,9.8356027 C24.2823671,10.0159141 24.5067149,10.1379825 24.6641683,10.3125255 C24.9248328,10.6020658 24.6781993,10.8484356 24.6652863,11.2077559 C24.6564913,11.4507763 24.917249,11.50139 24.6469323,11.8071193 C24.4195658,12.0644678 24.2191622,12.3019058 24.3567708,12.5322727 C24.455305,12.6978838 24.5716341,12.9792366 24.8513235,12.9596982 C25.2069632,12.9347635 25.4711122,13.1260537 25.80305,13.14094 C26.1377642,13.1560125 26.4474723,13.2492386 26.7908883,13.2371434 C27.1198075,13.2254203 27.4402298,13.2040211 27.7547639,13.2256064 C28.5052482,13.2767784 28.8556519,13.6768502 29.4394778,13.9288024 C29.7054716,14.0437997 29.9140181,14.2174123 30.1837386,14.3266412 C30.3795025,14.4059112 30.6235273,14.3910248 30.852049,14.4209837 C31.1395085,14.458944 30.8003968,14.6519089 30.9680614,14.7702557 C31.1959682,14.9312148 31.3389806,14.9915047 31.4127321,15.2758348 C31.4705147,15.5002472 31.5463532,15.7296837 31.6526575,15.9319525 C31.7761792,16.1680879 32.0480425,16.2923893 32.2226015,16.4905644 C32.3444834,16.6291939 32.3307505,16.8322071 32.5580424,16.8658876 C32.8703777,16.9120354 33.2281416,16.8055977 33.5664149,16.7758249 C34.293365,16.7119995 34.9242034,17.0102856 35.6133461,17.0480598 C35.976346,17.0679704 36.3341099,17.1191423 36.710731,17.1105827 C37.0716253,17.1023951 37.4579917,16.9503679 37.8106873,16.9734418 C38.1876624,16.9980043 38.5349542,17.0703894 38.8974138,17.118398 C39.2110721,17.1600799 39.6157925,17.1103966 39.8833887,17.2170204 C40.1360781,17.3178757 40.208134,17.5642455 40.4267054,17.6930128 C40.7461773,17.8816978 41.2828977,17.8789066 41.6857921,17.9633869 C42.2959099,18.0914098 42.7327173,18.4618949 43.5138724,18.3057739 C43.8701829,18.2346914 43.8834873,18.2825139 43.978891,18.4851549 C44.0722636,18.6842604 44.5520399,18.4723154 44.6339343,18.631972 C44.6117231,18.5886153 46.6153873,17.7812146 46.8040891,17.7101321 C47.1838592,17.5670367 47.6175362,17.500234 47.9780392,17.460785 C48.4073186,17.4138929 48.9170017,17.3121072 49.3242377,17.3052222 C49.9316164,17.2948018 50.5452933,17.4913021 51.2484112,17.1922717 C51.5778335,17.0523396 52.0804918,17.0061918 52.3790755,16.8002014 C52.6653798,16.6029567 52.8314605,16.3065314 53.0843922,16.0841659 C53.319417,15.8776172 53.6004293,15.7892293 53.8758516,15.67907 C54.0320566,15.6169193 54.1708391,15.5344859 54.2956093,15.4170694 C54.3687273,15.348592 54.5078639,15.4152086 54.5597583,15.3519415 C54.8735471,14.9680586 53.9492491,14.5999926 53.9144603,14.3076611 C53.88051,14.02575 54.1829696,13.2527741 54.7362179,13.1588037 C55.416547,13.0432481 55.872491,13.5205431 56.430994,13.6094892 C56.5515529,13.6288416 56.8733914,13.7308133 57.042733,13.6292137 C57.3067329,13.4703015 57.6314409,13.3627473 57.8454284,13.1662469 C58.0360868,12.9909596 58.2085774,12.7832945 58.4337824,12.630895 C58.649596,12.4850084 59.0222108,12.612101 59.1886269,12.6273595 C59.6325896,12.6679249 60.2071733,12.4567242 60.6757695,12.1011255 C60.904552,11.9291877 60.7174341,11.6796546 61.0349681,11.4150489 C61.331465,11.1684931 61.5315705,11.1113665 61.843086,11.1048537 C62.0679369,11.1002017 62.2103716,11.1988241 62.3471604,10.9016545 C62.453148,10.6716597 62.7101976,10.819035 62.8031044,10.8512268 C62.900446,10.8850934 63.4065329,10.6258841 63.5941912,10.5858769 C63.7491663,10.5527547 63.8590483,10.5832718 63.9852532,10.5974138 C64.065657,10.6083925 64.150924,10.6123002 64.2406631,10.6091369 C64.3027501,10.5639194 64.3653774,10.5192603 64.4286196,10.4749733 C64.5327997,10.474415 64.6953587,10.5875516 64.8055947,10.6085786 C65.0057002,10.6463528 65.2092157,10.6811498 65.4257374,10.6971527 C66.2202341,10.7555817 65.8591162,10.1149086 65.6602591,9.90445226 C65.1922592,9.41152659 64.58516,8.98000729 63.9343464,8.63799243 C63.643421,8.48205747 63.1444894,8.35831433 62.6288436,8.75485061 C62.0025332,9.26340699 61.8951667,8.73252102 61.3492414,8.75392021 C61.1652352,8.76117733 60.8301483,8.69772408 60.6321297,8.76378245 C60.3862602,8.84733232 60.2519124,9.06988389 60.0475398,8.92771884 C59.9175522,8.83728401 59.4422293,8.54253344 59.7731796,8.29188381 C59.9596081,8.15064916 60.0842106,8.15548724 60.0718938,7.97945565 C60.0593907,7.80472662 60.1510863,7.65865389 60.2835708,7.46103703 C60.6817322,6.86613957 60.9964154,6.2714282 61.3265644,5.67913586 C61.6982475,5.89070871 62.2612971,5.88512632 62.6281728,6.07436958 C63.04521,6.28966403 63.4031975,5.86596009 63.9237812,5.59837718 C64.2936755,5.41229728 64.843104,5.57809447 65.0753151,5.18044172 C65.2033648,4.9684967 65.0953648,4.92160457 64.9143027,4.88103915 C64.7946382,4.85405756 64.9567872,4.6685359 65.0235512,4.56470331 C65.1300977,4.39927828 65.3169176,4.32466023 65.3562343,4.15476928 C65.3606505,4.07754612 65.4135697,3.99641528 65.515607,3.91119068 C65.7260355,3.73646165 65.682638,3.63858362 65.8115821,3.46683187 C66.0848429,3.10285958 66.1439298,2.82262324 66.7415073,2.56508865 C67.4127246,2.27740912 66.9992837,1.93669681 67.0312402,1.6830699 C67.059265,1.4580993 66.8548551,1.27388019 66.4634391,1.37920142 C66.1135199,1.47335785 66.1200603,1.29174386 66.0745013,1.13748362 C66.6213024,1.00927457 66.9698613,0.430566063 67.5674947,0.343480668 C68.2801157,0.239834161 69.0071218,0.0444502607 69.6348483,0.0747812852 C70.2586991,0.10474015 70.9548853,-0.0898994306 71.5034007,0.0530099364 C71.7369908,0.114044145 71.925059,0.227925047 72.1036056,0.332874113 C72.3478167,0.47634172 72.7547545,0.478388599 72.981916,0.628182922 C73.2486923,0.30012405 74.106599,0.679168816 74.0888226,0.812402028 C74.0727791,0.932423567 74.4753007,1.08333437 74.5760523,1.15832457 C74.6538659,1.21656758 74.5133691,1.32989024 74.578251,1.38608638 C74.6798411,1.47391609 74.8344808,1.49773432 74.9071889,1.60845186 C74.9860274,1.7294038 75.2054559,1.82821223 75.1661764,2.00033614 C75.1424373,2.10286617 75.4939776,2.04127372 75.3599093,2.21432803 C75.1636981,2.47074614 75.4066235,2.5970944 75.5292508,2.72158185 C75.642226,2.83602099 75.587462,3.15068211 75.7779154,3.210972 C76.0331762,3.2934054 75.8572756,3.63300123 75.9798098,3.79582114 C76.1169898,3.97817945 76.3349091,4.10862146 76.4542755,4.30251672 C76.5553624,4.46682528 76.4196357,4.72361555 76.5011947,4.8944369 C76.5917351,5.08479665 76.8431015,5.0176218 76.7213127,5.30995333 C76.5506854,5.78873693 77.1792132,6.20369511 77.8029522,6.11270204 C78.0669522,6.0741835 78.4027658,6.00738081 78.542685,6.11065516 C78.770629,6.27961571 79.0789395,6.31348226 79.3472997,6.44299387 C79.3724177,6.12889099 79.6884053,6.56357365 79.7984177,6.56357365 C80.0622685,6.56357365 80.1315666,6.90819363 80.2745045,7.02170238 C80.5046287,7.20499108 80.9379888,7.05780188 81.1997528,7.17987029 C81.2775291,7.21634196 81.0398957,7.48373878 81.0580634,7.56747474 C81.0786534,7.66256157 81.2142124,7.73103897 81.2891937,7.79132886 C81.5115477,7.96977949 81.3167341,8.12534229 81.2522621,8.40018231 C81.2063863,8.59538013 81.5558024,9.05909125 81.824088,9.03173751 C81.9743302,9.01629288 82.1368333,8.96158538 82.2804233,8.96158538 C82.4959016,8.96158538 82.59574,9.07881572 82.831063,9.05536966 C83.0960319,9.02876023 83.7857709,9.06876741 83.993777,8.8049061 C84.2246652,8.53583456 84.7290377,8.3344961 85.006901,8.36296633 C85.0241371,8.36482713 85.2120376,8.46475204 85.2794724,8.39832151 C85.4358264,8.24443343 85.4546463,8.20107681 85.6855717,8.1558594 C85.8977518,8.1141775 86.4491181,7.83580196 86.5549007,7.94335614 C86.6127765,8.00234347 86.8925777,8.11622438 87,8.13092469 C86.8411305,8.3123526 86.7871864,8.4604722 86.8321118,8.58998381 C86.8980559,8.77941316 87.1647577,9.07174469 86.7425963,9.39012741 C86.6529877,9.45767441 86.4718324,9.4716304 86.3672796,9.52968733 C86.1062983,9.67427142 86.2733666,9.78163952 86.255702,9.89905594 C86.2413728,9.99432886 86.136466,10.1070933 86.0913729,10.2075764 C86.0080996,10.3925399 86.0973356,10.5486609 85.9432921,10.7436726 C85.7645406,10.9701319 86.0343915,11.3054479 85.5588264,11.4669652 C85.7078947,11.6420664 85.4375034,11.6898889 85.3081122,11.8958794 C85.2124476,12.0479067 85.32805,12.1705333 85.1945035,12.3307481 C85.0115967,12.5508807 84.7772986,12.4699359 84.7325408,12.7780842 C84.7165905,12.8874992 84.7250315,12.9943091 84.6649756,13.1160053 C84.5679136,13.3121336 83.5813796,12.9969142 83.4199386,12.95914 C83.3489076,12.9425789 82.9928393,12.7533356 82.9151002,12.8166028 C82.7429823,12.9563488 82.5915289,13.2077427 82.3725475,13.292223 C82.1973923,13.3599561 81.9204421,13.3694462 81.76938,13.4623 C81.6241688,13.5514323 81.8779203,13.7823575 81.8954917,13.8242255 C82.0629327,14.2276467 82.0741874,14.698801 82.0199638,15.197123 C81.9738271,15.6148724 82.2356097,15.8930618 81.8862868,16.3872901 C81.7340135,16.6027706 81.9140508,16.5729978 81.5808831,16.6654795 C81.3147217,16.7393532 81.1232994,16.687437 80.8538771,16.9066391 C81.1633615,16.9985626 80.9857093,17.1796183 81.1316286,17.3621627 C80.978405,17.1544975 80.6345044,17.0806238 80.6016535,16.7935025 C80.5741131,16.5556924 80.3847405,16.4887036 80.0684176,16.5045204 C80.0176785,16.6755278 80.0165046,17.1638015 79.7918027,17.3307152 C79.6173183,17.4604129 79.4240326,17.3262493 79.2335234,17.425802 C78.9548588,17.5715026 79.1132998,17.8714634 78.641275,17.9672945 C78.2190205,18.0530774 77.880151,17.9734352 77.4606355,18.0588459 C77.5074243,18.2974003 77.9657348,18.5841494 77.6813311,18.9125805 C77.5296169,19.0880538 76.8380518,18.960403 76.6584059,18.9328632 C76.4913935,18.9075563 76.3230209,18.8710846 76.2143128,18.7851157 C76.0866358,18.6842604 76.0840644,18.3895098 75.8180334,18.4150028 C75.6797353,18.4284005 75.5742508,18.564611 75.4156422,18.5675883 C75.2428347,18.8722011 75.1711143,19.0365097 74.9052137,19.3299577 C74.7922945,19.4594693 74.6603131,19.6786714 74.487748,19.7668733 C74.3994064,19.8119046 74.0831766,19.8230694 74.0525617,19.9242969 C74.0126114,20.0558554 73.8927978,20.0379917 73.7785183,20.1353115 C73.673686,20.1983926 73.5676612,20.2372833 73.4606115,20.2519836 C73.350096,20.2934794 73.1672824,20.4873747 73.1089408,20.5017028 C72.7486986,20.5900908 72.3454503,20.9094039 72.1886677,21.2363463 C72.0041584,21.6213456 71.3593449,21.6343712 71.2370902,21.4084702 C71.1706058,21.6118556 70.8738667,21.5887817 70.7438233,21.5824549 C70.7273885,21.7313189 70.5674196,21.7592308 70.4371339,21.7780249 C70.1669849,21.8167295 69.8983265,21.9942498 69.6351465,22.1317628 C69.3750596,22.2677872 69.2134695,22.3250998 69.0704572,22.5710975 C68.9664448,22.7502924 68.7507988,22.7333591 68.7216746,22.9086464 C68.6552274,22.847054 68.5623206,22.8202585 68.4421343,22.8282599 C68.5058983,23.021783 67.608619,23.494612 67.6729419,23.0370416 C67.7071345,22.798301 68.2037927,22.802953 68.3060536,22.7335452 C68.4544324,22.632876 68.3653082,22.5495122 68.4028362,22.4490291 C68.4495505,22.3236112 68.6942461,22.257925 68.801333,22.17177 C68.2608673,22.3563613 68.1634139,22.0725894 67.7895506,22.010997 C67.9074822,21.9164684 68.0511095,21.8463162 68.1862213,21.8234284 C68.1018859,21.4717374 68.2539915,21.5286778 68.6616001,21.2687242 C68.8485876,21.149447 69.0722087,20.7936622 69.1660658,20.6310284 C69.5035378,20.0454349 68.4568734,20.1695502 68.6268672,19.6529924 C68.5106498,19.9931465 68.2013704,19.8446547 68.0353828,19.780085 C67.825476,19.6983959 67.1700414,19.9555583 67.4822463,20.0951183 C67.1697805,20.1468485 66.8059421,20.5539913 66.7118055,20.8033384 C66.634439,21.0087706 65.8684889,21.2342994 65.6731721,21.3277115 C65.4844703,21.4179603 65.3178679,21.4842047 65.164048,21.6358599 C64.9131475,21.8833461 65.1176319,22.0057867 64.9637002,22.1955882 C64.5991165,22.6457155 64.2589799,22.4948047 63.7988992,22.7000508 C63.4844397,22.8405412 63.3975515,22.472103 63.101595,22.5197394 C62.6720361,22.5889611 62.5948747,23.1892549 62.5825393,23.4164585 C62.5608498,23.8141112 62.9771976,23.9598118 63.2195267,24.183852 C63.2957565,24.2545624 63.5422036,24.2807996 63.6862782,24.2353961 C63.9255887,24.1604059 63.8462098,24.4356181 64.0084147,24.4625997 C64.0991228,24.3688154 64.1423526,24.2750312 64.1380855,24.1812469 C64.4305016,24.1812469 64.7056444,24.4536679 64.7316196,24.6937109 C64.7670605,25.024561 64.3510109,25.3440602 64.6101289,25.6218775 C64.783868,25.8083296 65.0777002,25.8587572 65.4162529,25.8114929 C65.6545013,25.7779986 65.976992,25.6635594 65.821551,25.4540334 C65.9755013,25.3870447 66.7557061,24.9449188 66.3334888,24.9451049 C66.5561223,24.987159 66.8713644,24.7889839 67.1184451,24.7277636 C67.3518861,24.6697066 67.5889978,24.8699286 67.6464078,25.0100468 C67.6962711,25.1321152 67.7934636,25.117601 67.9620971,25.0759191 C68.0591406,25.0521008 68.0873145,25.2119435 68.1113704,25.2530671 C68.221476,25.4415661 68.6899231,25.1641209 68.7993206,25.3602492 C68.8498174,25.3033087 68.896774,25.2454379 68.940246,25.1860784 C69.1492584,25.3857421 69.6432893,25.2368782 69.8390719,25.4406357 C69.7736496,25.4663147 69.7083017,25.4931102 69.6430098,25.5210222 C69.84537,25.7610653 69.3323888,25.8284262 69.5371154,26.028276 C69.6190098,26.1084765 69.5451838,26.2303588 69.3582335,26.28916 C69.0498298,26.3862938 69.1300658,26.1624396 69.0905627,26.0167391 C69.0241155,26.086519 68.9536249,26.1535078 68.878923,26.2177054 C68.9433205,26.0161808 68.7803889,26.074796 68.6104883,26.1769539 C68.5122337,26.2359412 67.8569108,26.5697685 68.2732027,26.2848802 C68.0637617,26.3831304 67.6542897,26.643084 67.457855,26.6741594 C67.3189793,26.6961168 67.0764265,26.5344134 67.05047,26.780411 C67.3333457,26.6073567 67.4138612,26.8660078 67.2108302,27.0483661 C67.2081843,26.9071314 67.0353768,26.8976413 66.9331533,27.0617638 C66.8460974,27.2009516 66.9773334,27.2820824 66.88847,27.42555 C66.8479607,27.4912362 66.5944887,27.5850205 66.5360726,27.5708784 C66.3521596,27.5258471 66.5298304,27.3040399 66.3930975,27.2225369 C66.4792217,27.4819322 66.2983273,27.2660796 66.1370168,27.2895256 C66.0685385,27.4640686 66.1967559,27.7091358 66.393172,27.704856 C65.964228,27.7621686 65.9212591,28.4313119 65.4807809,28.3211526 C65.412284,28.5016501 65.2105201,28.8829278 65.0467872,29.0390489 C64.7744208,29.2988164 64.8417065,29.4698239 64.8129922,29.7279167 C65.0924021,29.5448141 65.312725,29.8060703 65.4282716,29.919579 C65.6557684,30.1436192 65.9955696,30.2262387 66.2947124,30.3803128 C66.5343024,30.5010787 66.5037434,30.900034 66.5948987,31.1210969 C66.7328427,31.4560408 66.8403955,31.8436452 67.0704451,32.1190435 C67.2286066,32.308845 67.348178,32.5935472 67.2706998,32.8789938 C67.1786315,33.2180314 67.7028301,33.26604 67.9231903,33.3748967 C68.1163269,33.4703557 67.9719543,33.5974483 68.0259915,33.7604543 C68.0678797,33.8856861 68.2062337,33.8858722 68.3152213,33.9482089 C68.4944945,34.050925 68.8947615,34.2770121 68.6476249,34.5777173 C68.3702089,34.4975168 68.13183,34.2081626 67.7684574,34.2985974 C67.2812463,34.4201076 67.4003519,34.1166112 67.0647806,33.9815172 C66.7276067,33.845865 66.4052838,34.3097622 66.1396068,34.141546 C66.0081472,34.0583682 65.9665385,33.9163893 65.9110292,33.7794345 C65.8421783,33.6095435 65.6561784,33.6192197 65.5180666,33.5194808 C65.5836566,33.5831202 65.5791846,33.6930934 65.4963399,33.7872498 C65.6045076,33.7003505 65.6909113,33.6958846 65.7551038,33.7738521 C65.7150603,33.7355196 65.6770107,33.6953263 65.6412715,33.6534584 C65.832638,33.5926102 66.0326131,34.0207801 65.7481162,33.8812202 C65.9275758,34.0267347 66.0836317,34.3505137 66.4497248,34.2122563 C66.5970229,34.1566184 66.6225136,34.0380855 66.783321,34.046273 C66.9218986,34.053158 67.0823706,34.1127036 67.135793,34.2217464 C67.1690725,34.2894795 67.0751035,34.372099 67.1554886,34.4171303 C67.2861842,34.4908179 67.4615631,34.5127754 67.6029916,34.5728792 C67.908153,34.702949 68.108035,35.0029098 68.3873517,35.1714982 C68.5411902,35.2645382 68.8193144,35.634279 68.7313268,35.857947 C68.690538,35.9617796 68.4762523,35.9221446 68.4128983,35.9275409 C68.1678114,35.9481958 67.9755133,36.1348339 67.7572214,36.2600657 C67.6116562,36.3436156 67.4529358,36.3867861 67.3776563,36.5336031 C67.3441345,36.5989172 67.2771656,36.7574573 67.1763023,36.7632257 C67.0041657,36.7729019 66.9602091,36.6162226 66.7445446,36.686933 C66.5634639,36.7462925 66.398408,36.8852942 66.2350664,36.9893128 C66.3395633,36.9470727 66.7668676,36.680048 66.8427061,36.7457342 C66.9867619,36.8705938 66.8758551,37.2098175 67.1569048,37.2036769 C67.1104141,37.1683217 67.0601967,37.1370603 67.0062526,37.1098926 C67.3214203,37.1580873 67.6554823,36.7805312 67.9455878,36.8681748 C68.1454139,36.9284647 68.1960598,37.1005886 68.29683,37.2466613 C68.4165318,37.4200878 68.8001404,37.4576759 69.0222149,37.5118252 C68.8323951,37.585885 68.7187678,37.7055344 68.5632337,37.8333713 C68.5016685,37.9012904 68.4338237,37.9638133 68.3596809,38.0209398 C68.2535443,38.0843931 68.1516561,38.0507126 68.0441033,38.1281218 C68.0537555,38.1800381 68.0753518,38.2246973 68.1089108,38.2620994 C68.2352648,38.144869 68.4550473,37.9811187 68.5640722,38.1147241 C68.5100908,38.0361984 68.5987305,37.8236951 68.7307119,37.9078032 C68.8770224,38.0014014 68.6713268,38.1461716 68.71001,38.2834986 C68.7107926,38.2862898 68.7474448,38.7380918 68.5988051,38.6256995 C68.5161653,38.5631767 68.5720473,38.4022175 68.5044262,38.3290881 C68.500215,38.41729 68.4889604,38.5066084 68.4696374,38.5970432 C68.3429666,38.626816 68.2844201,38.5549891 68.288594,38.4494818 C68.2691219,38.6978985 68.2394014,38.5402888 68.2035878,38.4494818 C68.1488052,38.5574082 68.0746996,38.6556584 67.9810661,38.7442324 C68.1705132,38.7092494 68.3926623,38.8733719 68.368271,39.0523807 C68.3094076,38.9682726 68.2424573,38.9772044 68.1672524,39.0793623 C68.3164884,39.069314 68.4285691,39.2656283 68.2339045,39.3635063 C67.9924512,39.4850165 67.7676189,39.2466481 67.6109481,39.1731466 C67.6849419,39.2449734 67.6986748,39.3962564 67.800563,39.4409156 C67.9443766,39.5039967 68.0902772,39.3765319 68.1355195,39.5670777 C68.1571903,39.6580708 68.3535877,39.8882517 68.1922772,39.9998996 C68.0458735,40.1013132 67.8988735,40.094056 67.9069232,40.2983718 C67.7483332,40.2179853 67.8043643,39.9840828 67.6398674,39.9098369 C67.5626127,39.998411 67.5516935,40.0166468 67.4458736,40.0572122 C67.711532,40.0929396 67.0815135,40.8832209 66.7800601,40.3519628 C66.785557,40.5473467 67.244296,40.5095725 67.1218923,40.7352874 C67.0166315,40.9295548 66.7119545,41.2819901 66.926706,41.4105714 C66.7677993,41.4743968 66.746352,41.5618543 66.7301595,41.6902495 C66.6951471,41.9673224 66.5359235,41.6764795 66.5642651,41.8659089 C66.4928801,41.7868249 66.4230043,41.7064384 66.3548055,41.6247493 C66.3236689,41.7215109 66.718793,42.0551522 66.3400664,41.9730909 C66.3671223,42.1320032 66.1997373,42.2771455 66.0348305,42.3214325 C66.1386565,42.5475196 66.1806938,42.9494522 65.7186193,42.8305471 C65.8768553,42.772118 65.9746255,42.6254871 65.9475882,42.4822055 C65.8672591,42.5330053 65.8006814,42.5955282 65.7505572,42.6697741 C65.6706566,42.6046461 65.6226566,42.5099314 65.6237746,42.401819 C65.5388803,42.5008135 65.4185635,42.5607313 65.317253,42.509001 C65.3678617,42.585666 65.3784082,42.6749843 65.3428368,42.7769561 C65.5896566,42.6777755 65.7759547,43.0622166 65.4576008,43.0315134 C65.4376442,43.1969384 65.6322343,43.2856986 65.7235759,43.0851044 C65.8606255,43.256484 65.6720541,43.2486687 65.5336256,43.3597584 C65.39093,43.4740114 65.2985822,43.6318072 65.212812,43.7817876 C65.0905946,43.6468797 64.8778369,43.5705869 64.6976133,43.5140186 C64.8295574,43.6050117 64.8715015,43.8606855 65.0911536,43.8262607 C65.3084579,43.792022 65.4243213,43.5785883 65.5475635,43.8355647 C65.3946753,43.8923191 65.4007871,44.1167314 65.3280791,44.2587104 C65.207725,44.4931711 65.5799486,44.5006143 65.4491784,44.7466119 C65.441166,44.5679752 65.390166,44.5679752 65.2958244,44.7466119 C65.2349673,44.6176585 65.134048,44.5078714 64.9957872,44.4518613 C64.9633089,44.5644397 64.8761785,44.6636203 64.7642655,44.7196303 C64.8540605,44.772477 65.0993897,44.8063435 65.0250791,44.9741876 C64.9178804,45.2162776 64.7905202,44.8677499 64.7296258,45.17534 C64.7256568,45.0367105 64.6368121,44.7970396 64.4462097,45.0011692 C64.6236382,45.0661111 64.4036693,45.3396486 64.624309,45.3493247 C64.5455637,45.4976304 64.178688,45.7253922 64.229129,45.4699045 C64.053806,45.5878791 64.0825948,45.6195127 64.193893,45.6978524 C64.3321724,45.7953582 64.1507563,46.027772 64.0574209,46.1263944 C63.99198,46.0487991 63.9299862,45.9682265 63.8714955,45.8852348 C63.7887067,46.0616386 63.5288434,46.1734726 63.4709863,45.9656214 C63.3367689,46.1129966 63.098036,46.0199567 63.2117192,46.2333903 C63.1127193,46.2036176 63.0078125,46.1989656 62.8967193,46.2201787 C62.9731541,46.3221505 63.1046323,46.3608551 63.2494522,46.3139629 C63.2010609,46.421145 63.2418497,46.484226 63.3529615,46.4881337 C63.2946758,46.5871282 63.2018248,46.5867561 63.1187193,46.6466738 C62.9890485,46.7404581 63.0279367,46.9192809 62.8351168,47.0240439 C62.9212597,46.893974 62.8896013,46.8448489 62.7394336,46.8766686 C62.7672349,47.0210666 62.6499368,47.1494617 62.6223778,47.2919989 C62.6564585,47.0216248 62.3266822,47.3053967 62.1805021,47.3053967 C62.1440549,47.3390771 61.9500798,47.8061377 61.8265394,47.6641587 C61.7180177,47.5392991 61.6418624,47.4743572 61.5746885,47.7084457 C61.5004898,47.9657943 61.3650985,48.0264563 61.1080489,47.9886821 C61.2554588,48.0480416 61.4535146,48.04432 61.4612289,48.2432394 C61.3226327,48.0322248 61.2751917,48.3608419 61.1735458,48.2298416 C61.0890054,48.3934059 61.1499743,48.6020014 60.917316,48.6675016 C60.7652477,48.7103 60.5049931,48.7650074 60.3780987,48.6853652 C60.5459496,48.8984267 59.7322603,49.0063531 59.9684591,48.6719675 C59.8257448,48.8027817 59.6783535,48.7478881 59.5540492,48.6853652 C59.5606082,48.7996183 59.8474529,48.9516456 59.7396765,49.0910194 C59.6733597,49.1764301 59.5697386,49.1042311 59.5247014,49.0701785 C59.3846145,48.9646712 59.2348381,48.9812323 59.287217,48.7925473 C59.1819188,48.9066143 58.8330618,49.0932524 58.7395587,49.0204952 C58.9670742,49.1031146 58.7777202,49.2841704 58.6386581,49.2449075 C58.4752047,49.1989458 58.5172233,48.9977934 58.6504718,48.8999154 C58.4877078,48.8993571 58.3275898,48.9821627 58.2160122,49.1142794 C58.394037,49.1468434 58.1651427,49.3303182 58.3593786,49.3820484 C58.3127016,49.4175897 58.2622234,49.4443852 58.2077389,49.462621 C58.1717576,49.1749415 57.4891366,49.2006205 57.2938571,49.4358255 C57.3428074,49.0435691 56.8582237,48.9414112 56.9863479,48.5247783 C56.8851305,48.791803 56.9204224,48.6323325 56.8199318,48.538176 C56.9371367,48.3881956 57.0993603,48.3628888 57.2578199,48.3908008 C57.0704969,48.2464027 56.841174,48.5378039 56.643584,48.4443918 C56.9277827,48.5640411 56.5679691,48.7949663 56.3751865,48.7257446 C56.4467952,48.7558895 56.7164038,48.8602804 56.7156771,48.9507152 C56.6814287,48.9743473 56.646174,48.9752777 56.6101181,48.9535064 C56.7618138,49.06441 57.0809131,49.6005062 56.8673541,49.8377581 C56.6395964,50.0893381 56.3805343,49.3617657 56.3085716,49.2616547 C56.2546089,49.5015117 56.512907,49.7162479 56.5946896,49.9047469 C56.4889443,49.9278208 56.4007331,50.0044857 56.3670809,50.1057132 C56.2746772,50.0567741 56.2146027,49.9654089 56.234317,49.8511558 C55.9655096,49.9629899 56.177112,50.2396907 55.9863605,50.4004637 C55.8400313,50.1633979 55.6698326,50.3541298 55.5139258,50.5230904 C55.40846,50.6373434 55.1499383,50.3935788 55.3441184,50.2396907 C55.2180812,50.284722 55.1536464,50.2290841 55.1884911,50.1057132 C55.1387396,50.261276 55.2276588,50.4218629 55.1510563,50.5774257 C55.0547396,50.7733679 54.5959819,50.4177692 54.494485,50.387066 C54.6888515,50.6927953 54.3851434,50.5523049 54.2056093,50.5614228 C54.4945037,50.6808861 53.9662429,51.1373402 53.812479,50.8561734 C53.7626156,50.9572148 53.6775722,51.0571397 53.5656964,51.097333 C53.7025038,50.8928312 53.4268766,51.0171325 53.2815536,51.0493244 C53.1014419,51.0893315 52.8453425,51.1444112 52.7099326,51.2982993 C52.7538332,51.2216343 52.8065102,51.1501797 52.8680195,51.0839352 C52.7409947,51.1619027 52.6290072,51.2966246 52.687796,51.4322768 C52.376765,51.5197344 52.5147091,51.3128135 52.3594358,51.1777195 C52.2634544,51.3304911 52.4580258,51.430416 52.2969203,51.5681151 C52.1832371,51.6650628 51.9549763,51.7642434 52.0127216,51.9400889 C52.0457402,52.0407581 52.190411,52.0459683 52.2788644,52.0776019 C52.4019575,52.1215168 52.3151811,52.4078937 52.2619079,52.1021645 C52.2428644,52.3373695 52.556914,52.45981 52.5009761,52.6937125 C52.4068022,53.0878297 51.8926284,52.8946788 51.6486782,53 C51.682908,52.8645338 51.5578397,52.6481229 51.7831191,52.7722382 C51.7702247,52.5446625 51.3449329,52.5906242 51.5626285,52.2765213 C51.3659143,52.3016421 51.530877,52.0323845 51.3725292,52.0154512 C51.2718894,52.0046586 51.3046099,51.6295215 51.3839888,51.5602998 C51.5403801,51.4239032 51.3891689,51.3290025 51.5923117,51.2188432 C51.9049079,51.0495104 51.5209267,50.9521906 51.4284298,50.8565456 C51.4452186,50.9047403 51.4597714,50.9538654 51.4720509,51.0039209 C51.2530323,51.048394 51.1991441,50.7413621 51.1265292,50.615386 C51.0404795,50.7264757 51.0719702,50.8310526 51.1765975,50.883155 C51.0821814,50.9706126 50.7748958,51.1996769 50.7032125,51.0171325 C50.4732002,51.3932 50.5310573,50.8252842 50.4567095,50.7625752 C50.3695232,50.6888876 49.9877593,50.8440782 50.2446226,50.561795 C50.1983741,50.5446757 50.1505605,50.5312779 50.1012002,50.5214157 C50.072281,50.6192937 50.0799766,50.7087981 50.124753,50.7893707 C49.9623804,50.7646221 49.9360512,50.4547991 49.7628525,50.4946202 C49.8539332,50.4004637 49.8364363,50.3089124 49.7324612,50.2668584 C49.6727407,50.3625034 49.6073929,50.4977835 49.6153308,50.3070516 C49.5467035,50.5044824 49.8342376,50.6271091 49.6863059,50.8284475 C49.615219,50.9252091 49.4635234,50.7002385 49.3847967,50.7089842 C49.4181134,50.8245398 49.3449582,50.9326523 49.227716,50.990337 C49.2427159,50.8701294 48.9277533,50.8293779 48.7833061,50.7651803 C48.5812068,50.6754898 48.2369894,50.9568426 48.1874242,50.7357797 C48.137505,50.7627613 48.0874181,50.7895568 48.0371448,50.8163523 C48.0103311,50.5908235 47.7058778,50.6112923 47.5726666,50.4812224 C47.5242753,50.4339581 47.6539088,50.3654807 47.5607225,50.3370105 C47.4266169,50.2957007 47.2762443,50.1010612 47.1060456,50.2266651 C47.047499,49.8703221 46.8922817,49.6014366 46.9534742,49.2354174 C47.2787971,49.3513452 47.2785549,48.5229175 46.7574308,48.7544009 C46.5456606,48.8485573 46.4750395,48.6833184 46.3357166,48.6096307 C46.1668222,48.5204984 46.0265676,48.7811964 45.8489154,48.6306578 C45.5828471,48.4055011 45.3234124,48.2793389 45.1393317,47.962817 C45.002897,48.1883458 44.7210834,48.2140248 44.5223381,48.356376 C44.3953878,48.447369 44.5751269,48.6297274 44.4121393,48.768543 C44.2780897,48.8829821 43.5089904,49.2223919 43.6396115,48.8468826 C43.3899594,48.8565588 43.2393445,49.4224277 43.1597048,49.3680924 C43.0461893,49.2906832 42.9628042,49.1671261 42.8774813,49.0629214 C42.6956925,48.8413002 42.6735745,49.0815294 42.5731956,49.2488152 C42.3536739,48.9494126 42.3289845,48.8846568 42.0622081,49.2592357 C41.816879,49.6040417 41.6047548,49.2370922 41.4456058,49.0895308 C41.099935,48.7692873 40.9628295,49.2290907 40.7565562,49.47881 C40.6450345,49.6137179 40.550283,49.4572247 40.441519,49.4667148 C40.3680097,49.4724832 40.2950408,49.485881 40.2222768,49.5065359 C40.1244694,49.5338896 40.1707551,49.3827927 40.0886185,49.3827927 C39.7301092,49.3827927 39.7997987,50.0595653 39.8685191,50.1888909 C39.9463514,50.3355218 40.0532893,50.4758261 40.0804756,50.6477639 C40.1106806,50.7020993 40.1373452,50.7582954 40.1604694,50.8165384 C40.1584011,50.9144164 40.0599415,50.999641 40.0483141,51.0978912 C40.0357738,51.2019099 40.2234507,51.4207398 40.108575,51.5130355 C39.9536558,51.6378951 39.8393763,51.3550536 39.6622459,51.4051091 C39.3921528,51.4817741 39.3595627,51.5000099 39.2929478,51.2387537 C39.2363205,51.0139692 39.1270721,50.7956974 39.1476622,50.5483973 C38.8897554,50.7167996 38.4192027,51.188326 38.1430537,50.9955473 C38.0110164,50.9034377 37.9459295,51.1166853 37.8274202,51.0917506 C37.706209,51.0658855 37.7079233,50.7962557 37.7794202,50.7091703 C37.3017495,50.7030297 37.7231842,50.2435984 37.4871532,50.1204135 C37.2284638,49.9853195 36.8824204,50.002811 36.583818,50.0430042 C36.1989236,50.0949205 36.5779111,49.5631042 36.620731,49.4334065 C36.6840478,49.2423024 36.5400664,48.6983908 36.9028055,48.712719 C36.8477061,48.4306219 36.6669235,48.4045707 36.3864329,48.4045707 C36.0166317,48.4045707 36.0935883,48.1114948 35.9754889,47.8816861 C35.9647001,47.8606591 35.8567746,47.7218435 35.8872591,47.6866744 C36.0427932,47.506363 35.8003337,47.3828059 35.7416008,47.2490145 C35.6431039,47.0242299 35.9918491,46.9274684 35.9709423,46.7032421 C35.5980107,46.9432852 35.2322717,46.6381141 34.8549798,46.8279156 C34.767868,46.8716444 34.242924,47.233942 34.170216,47.171047 C34.0217999,47.0422797 34.2193899,46.9077439 34.2951352,46.7756272 C34.3703402,46.6446269 34.3108619,46.4360314 34.2544582,46.3279189 C34.1669738,46.1600749 34.0943589,46.1824044 34.0890297,45.941617 C34.0849676,45.7626082 34.1846942,45.6327244 34.3829178,45.6180241 C34.2716011,45.3815165 34.4352408,45.1959949 34.4611414,44.9481364 C34.7390606,45.2320944 34.8781227,44.4972648 34.9226196,44.3988286 C35.3927064,44.4319508 35.0813028,44.2352643 35.4260045,44.0102937 C35.4802281,43.9749385 35.6369175,44.0685367 35.6609362,43.9870337 C35.709048,43.8238416 35.5165635,43.7041923 35.483489,43.5681679 C35.7505262,43.675536 35.6841163,43.1794469 35.7059175,43.0436086 C35.7533585,42.7481137 35.732079,42.4046102 35.6915138,42.1273512 C35.6590728,41.9066604 35.6534828,41.6759213 35.6535387,41.4472291 C35.6536691,41.1777854 35.4997933,41.1370339 35.2705077,41.0225948 C35.3031723,41.1295907 35.2256195,41.2133267 35.1095885,41.2505426 C35.0533897,41.0573917 34.9098929,40.8629382 34.8911661,40.6593668 C34.8745823,40.4796136 34.9155947,40.3253534 34.7905823,40.1910037 C34.5837128,39.9686382 34.2056011,39.8808085 34.0360359,39.6426262 C33.9896198,39.8251706 33.8616446,40.3534514 33.6171354,40.0616781 C33.4839242,39.9031381 33.3527627,40.0469778 33.2011603,39.9734763 C33.0623591,39.9064875 32.9025392,39.774929 32.7275517,39.7766037 C32.5656822,39.7782784 32.4594896,39.97757 32.3016077,39.9109534 C32.1884089,39.863317 32.3268934,39.6917513 32.3802039,39.6255068 C32.4642785,39.521116 32.6047753,39.4133757 32.6606387,39.2985644 C32.7503032,39.1141593 32.416912,39.0298651 32.5375083,38.7983817 C32.40603,38.8324343 32.2403033,38.9961846 32.106235,38.9651093 C31.8072972,38.8958875 32.2174027,38.6163955 32.335558,38.5708059 C32.2334276,38.4610188 32.0984462,38.3132713 31.9845394,38.2176263 C31.8717506,38.1227255 31.389701,38.4167318 31.2599744,38.4928385 C31.1265023,38.5711781 31.1459371,38.7447906 31.0190614,38.81792 C30.9056763,38.8834202 30.7419434,38.8000564 30.6626204,38.7648873 C30.6322478,38.7513034 30.2702727,38.5079109 30.3980429,38.7045974 C30.2860926,38.6327705 30.1207758,38.4853953 29.9918318,38.4500401 C29.8433225,38.4092886 29.6930803,38.5361951 29.5209623,38.6234665 C29.2732481,38.7488844 29.1042605,38.9840894 28.9034655,39.1655173 C28.649155,39.3956982 28.4513787,39.3903018 28.1533539,39.4386826 C27.8247328,39.4920875 27.9048943,39.6988223 27.7270372,39.8876934 C27.5636956,40.0611199 27.2359317,40.1390874 27.1372299,40.3448917 C27.0080436,40.6135911 26.9637889,40.8102776 26.5850623,40.8233032 C26.3413729,40.8314907 26.1330127,40.9758887 25.901696,40.9451855 C25.7315159,40.9226699 25.6051246,40.9055505 25.6371557,40.7200288 C25.6659072,40.554976 25.2487582,40.4224871 25.1038638,40.4046234 C24.883485,40.3774557 24.8316465,40.6297801 24.6001434,40.5132941 C24.3949323,40.4102058 24.1803299,40.4122527 23.935038,40.4087172 C23.6925971,40.4053677 23.9050939,40.1444837 23.701243,40.0817748 C23.4413052,40.0021326 23.1950257,40.0186937 22.9179078,40.1757451 C22.6269637,40.340798 22.3765104,40.6026124 22.1903986,40.8685206 C22.0492123,41.0706034 21.7814297,41.3904747 21.7195105,41.6120959 C21.3498211,41.4182006 21.7190074,40.9937524 21.6566037,40.6742532 C21.5586845,40.1759312 20.9985044,40.5694902 20.6312188,40.5938667 C20.630343,40.6431778 20.6302499,40.6923029 20.6307902,40.7412419 C20.3341443,40.6535983 19.8693494,40.7661767 19.5383805,40.7596639 C19.2396849,40.7537093 19.0692999,40.6426196 18.8177658,40.5069673 C18.7299273,40.459703 18.584623,40.3584756 18.4594429,40.4068564 C18.3480702,40.4498408 18.3837534,40.6100556 18.2696789,40.6294079 C18.0961821,40.6588085 17.81053,40.4278834 17.8349772,40.2591089 C17.7889151,40.2907425 17.6745051,40.8411669 17.5765859,40.6126607 C17.4766542,40.3800608 17.1916916,40.24292 17.1515736,39.9777561 C17.0610891,40.194167 16.3240955,40.1037322 16.3053874,39.9126281 C16.2954557,39.8104703 16.4386172,39.630531 16.3692632,39.5460507 C16.2973564,39.4585932 15.9928285,39.6550935 15.8558161,39.5663334 C15.6378037,39.4250988 15.1208162,39.2475785 15.075574,38.9712499 C15.0199343,38.6310958 14.7287107,38.2587499 14.2855121,38.6165816 C14.1274251,38.745535 13.8049532,38.1921333 13.7536178,38.1124911 C13.6119656,37.893289 13.2449595,37.8473273 12.9984378,37.6819022 C12.6142143,37.4241816 12.2835808,37.1378046 11.9758479,36.8121648 C11.8581958,36.6876773 11.6547548,36.7060992 11.4919723,36.6523221 C11.3162767,36.5942652 11.2644382,36.8231435 11.0783264,36.7488976 C11.0491463,37.2364269 10.7492395,37.2980194 10.5201215,36.9863355 C10.3148172,36.7074018 10.0087614,36.5771458 9.66046333,36.4807564 C9.5868795,36.4602877 9.40859382,36.4383302 9.36672426,36.3739466 C9.30221496,36.2743938 9.4952584,36.1139929 9.3245193,36.0432826 C9.19523983,35.9896916 9.12828953,35.9740609 9.02854421,35.8665067 C8.85743244,35.6821015 8.69062503,35.8147765 8.47948842,35.7515093 C8.16072452,35.6562364 8.09742639,35.3073366 7.91539537,35.0946472 C7.73165007,34.879911 7.35674332,35.4889505 7.3030042,35.0602224 C7.28379302,34.9093116 7.37697934,34.756354 7.31174333,34.6153054 C7.24581787,34.4725821 7.2326626,34.3557239 7.23830856,34.1910432 C7.24456943,34.0138951 7.08109741,33.9059688 6.97550116,33.7967399 C6.81924032,33.6352225 6.91533347,33.387178 6.79035834,33.2118908 C7.23219676,32.9398419 7.26569986,33.1382031 7.43392342,33.3895971 C7.51684266,33.5135263 7.67601033,33.5352976 7.79323391,33.3962959 C7.939414,33.2226834 8.12589844,33.2364905 8.27481766,33.0855797 C8.45837663,32.8994998 8.30351331,32.7176625 8.21591705,32.5888952 C8.14633942,32.4865513 8.25266238,32.2057567 8.14702887,32.173751 C7.71532709,32.0420064 7.7372774,32.0725979 7.47603522,31.7572483 C7.18069366,31.4013705 7.2695011,30.7617766 7.30112221,30.674133 C7.31688618,30.6305159 7.8380103,30.4932261 7.44834578,30.3668034 C7.11407877,30.2575001 6.90219683,29.9937877 6.61402919,29.8010647 C6.21633362,29.5354915 6.52406647,28.9212231 5.85737717,28.4936487 C5.39338348,28.5126288 4.03060115,28.4231244 4.15824088,27.7993846 C4.0135142,27.8323207 3.76522233,28.0388694 3.6499739,27.9154984 C3.56049566,27.8196673 3.29863857,27.6508928 3.26983113,27.5265914 C3.24340877,27.4125244 3.31363857,27.1851348 3.30927832,27.0524598 C3.30339012,26.8697294 3.24357647,26.7229123 3.12761997,26.5935868 C2.96694299,26.4116006 2.5798499,26.5133863 2.50199899,26.3269343 C2.4176077,26.1252237 2.02518542,25.8810868 1.76567616,26.1782564 C1.71217928,25.8548496 1.24840919,26.0930318 1.17700547,25.8574547 C1.08242164,25.5463291 1.67252711,25.6777015 1.76733454,25.6624429 C2.16016676,25.5993618 2.10137795,25.2748385 1.921937,25.1527701 C1.77027864,25.0491236 1.8704339,24.9947882 1.90937799,24.8319683 C1.92685625,24.7592111 1.85241527,24.5407533 1.83765751,24.4627858 C1.81673205,24.3526265 1.67597431,24.3407174 1.66304264,24.2179046 C1.64789358,24.0738788 1.74150846,23.9192464 1.74959542,23.7722433 C1.76422274,23.5011248 1.29385638,23.426879 1.06572599,23.3779399 C0.763005561,23.3126259 0.428999419,23.7091622 0.261856597,23.4242738 C0.207558472,23.3321643 -0.0128203643,22.9110655 0.310378326,22.9092047 C0.243837967,22.7744828 0.131943581,22.6712085 0.0385150287,22.5554668 C-0.0541122811,22.4415859 0.0514467031,22.2419221 0.0360554019,22.1040369" id="path2708"></path>
        </g>
    </g>
</svg>