
<svg width="41px" height="80px" viewBox="0 0 41 80" version="1.1" xmlns="http://www.w3.org/2000/svg" xmlns:xlink="http://www.w3.org/1999/xlink">
    <!-- Generator: Sketch 49.3 (51167) - http://www.bohemiancoding.com/sketch -->
    <desc>Created with Sketch.</desc>
    <defs></defs>
    <g id="Page-1" stroke="none" stroke-width="1" fill="none" fill-rule="evenodd">
        <path d="M30.3613619,0.397626071 C30.6595814,0.298219554 31.156614,0 31.5542401,0 L31.8524596,0 C32.2500857,0 32.6477118,0.298219554 32.8465248,0.596439107 L34.039403,2.18694339 C34.1388096,2.48516295 34.8346552,2.7833825 35.2322812,2.7833825 L38.7115094,3.97626071 C39.1091354,3.97626071 39.407355,4.27448027 39.7055746,4.57269982 L40.7990462,6.46142366 C41.1966723,6.56083018 40.8984528,7.05786277 40.7990462,7.35608232 L38.6121029,9.64243223 C38.4132898,9.84124527 38.2144768,10.4376844 37.9162572,10.7359039 L37.5186312,12.7240343 L37.5186312,14.1157255 L37.9162572,15.0103842 C38.2144768,15.4080103 38.3138833,16.0044494 38.3138833,16.4020754 L38.4132898,16.9985146 C38.4132898,17.2967341 38.4132898,17.9925797 38.3138833,18.3902058 L37.2204116,20.8753687 C37.1210051,21.1735883 36.723379,21.6706209 36.6239725,22.068247 L34.3376226,27.833825 C34.039403,28.2314511 34.039403,28.9272967 34.039403,29.3249228 C34.039403,29.7225488 34.1388096,30.2195814 34.039403,30.517801 C33.4429639,34.1958421 31.8524596,43.1424287 31.5542401,43.9376809 L29.7649228,49.1068198 C29.5661097,49.4050394 29.2678902,50.100885 29.2678902,50.4985111 C28.9696706,51.5919828 29.1684837,51.8902023 28.5720446,52.6854545 L25.1922229,58.351626 C25.0928164,58.6498455 24.5957838,59.1468781 24.3969708,59.2462846 L21.8124013,62.1290737 C21.7129948,62.4272932 21.3153687,62.8249193 21.2159622,63.2225454 L18.8302058,69.2863429 C18.7307993,69.683969 18.7307993,70.3798146 18.7307993,70.5786277 L18.7307993,76.9406448 C18.7307993,77.4376774 18.5319862,77.8353035 18.4325797,78.2329295 L18.0349537,79.6246208 C17.8361406,79.9228404 17.4385146,80.1216534 17.140295,79.9228404 L15.9474168,79.3264012 C15.7486037,79.1275882 15.1521646,78.9287752 14.8539451,78.5311491 L14.3569125,78.2329295 C14.257506,77.8353035 14.0586929,77.4376774 14.0586929,76.9406448 L14.3569125,75.250734 C14.3569125,74.8531079 14.3569125,74.3560754 14.257506,73.9584493 L12.8658147,70.9762537 C12.7664082,70.5786277 12.4681887,70.1810016 11.9711561,69.7833755 L8.98896054,67.0993995 C8.59133446,66.7017735 8.09430187,66.602367 7.6966758,66.602367 L7.59726929,66.602367 C7.29904973,66.602367 6.80201714,66.3041474 6.60320411,65.9065213 L4.41626071,62.8249193 C4.21744768,62.5266997 4.11804116,62.0296671 3.91922812,61.6320411 L3.32278902,59.4450977 C3.32278902,59.1468781 3.12397598,58.4510325 3.12397598,58.1528129 L3.12397598,55.866463 C3.12397598,55.468837 3.02456946,55.0712109 2.62694339,54.9718044 L0.937032589,53.5801131 C0.539406518,53.4807066 0.44,52.784861 0.44,52.4866414 L0.539406518,51.3931697 C0.539406518,50.9955437 0.837626071,50.4985111 0.837626071,50.100885 L1.13584562,48.5103807 C1.13584562,48.2121612 1.5334717,47.7151286 1.5334717,47.416909 L1.83169125,47.218096 C2.1299108,46.8204699 2.32872384,46.4228438 2.1299108,46.0252178 L1.83169125,39.2655746 C1.83169125,38.967355 1.83169125,38.4703224 2.1299108,38.1721029 L13.6610669,17.8931732 C13.8598799,17.4955471 14.257506,16.9985146 14.5557255,16.700295 L17.140295,13.7180995 C17.4385146,13.5192864 17.8361406,13.0222538 18.0349537,12.7240343 L20.9177427,6.26261062 C21.0171492,5.96439107 21.6135883,5.566765 21.8124013,5.566765 L24.7945969,4.4732933 C25.1922229,4.27448027 25.6892555,4.07566723 26.2856946,3.97626071 L28.075012,3.67804116 C28.472638,3.47922812 28.8702641,3.08160205 28.8702641,2.7833825 C28.8702641,2.48516295 28.9696706,1.88872384 29.2678902,1.49109777 L30.3613619,0.397626071 Z" id="ꀂ" fill="#F1F1F1"></path>
    </g>
</svg>